<svg width="0" height="0" class="hidden">
  <symbol xmlns="http://www.w3.org/2000/svg" viewBox="0 0 16 16" id="©">
    <path d="M8.14773 15.2273C12.3026 15.2273 15.6619 11.8679 15.6477 7.72727C15.6335 3.58665 12.3026 0.227273 8.14773 0.227273C4.02131 0.227273 0.661932 3.58665 0.647727 7.72727C0.633523 11.8679 4.02131 15.2273 8.14773 15.2273ZM8.14773 13.5795C4.91619 13.5795 2.28125 10.9446 2.29545 7.73438C2.30966 4.50284 4.9304 1.875 8.14773 1.875C11.3793 1.875 13.9858 4.48864 14 7.73438C14.0142 10.9588 11.3935 13.5795 8.14773 13.5795ZM4 7.72727C4 10.0568 5.8892 11.946 8.21875 11.946C10.2358 11.946 11.7841 10.5256 12.054 8.63636H10.3352C10.1364 9.60938 9.3125 10.2983 8.21875 10.2983C6.7983 10.2983 5.64773 9.14773 5.64773 7.72727C5.64773 6.30682 6.7983 5.15625 8.21875 5.15625C9.3125 5.15625 10.2855 5.84517 10.4773 6.81818H12.196C11.9261 4.92898 10.2358 3.50852 8.21875 3.50852C5.8892 3.50852 4 5.39773 4 7.72727Z" fill="white"></path>
  </symbol>
  <symbol xmlns="http://www.w3.org/2000/svg" viewBox="0 0 47 16" id="2022">
    <path d="M0.505682 15H9.68182V13.4375H2.92045V13.3239L6.1875 9.82955C8.6875 7.15199 9.42614 5.90199 9.42614 4.28977C9.42614 2.04545 7.60795 0.255681 5.05114 0.255681C2.50142 0.255681 0.5625 1.98864 0.5625 4.54545H2.23864C2.23864 2.89062 3.31108 1.78977 4.99432 1.78977C6.57102 1.78977 7.77841 2.75568 7.77841 4.28977C7.77841 5.6321 6.99006 6.62642 5.30682 8.46591L0.505682 13.7216V15ZM17.3594 15.1989C20.5696 15.1989 22.4162 12.4787 22.4162 7.72727C22.4162 3.01136 20.5412 0.255681 17.3594 0.255681C14.1776 0.255681 12.3026 3.01136 12.3026 7.72727C12.3026 12.4787 14.1491 15.1989 17.3594 15.1989ZM17.3594 13.6364C15.2429 13.6364 14.0071 11.5128 14.0071 7.72727C14.0071 3.94886 15.2571 1.78977 17.3594 1.78977C19.4616 1.78977 20.7116 3.94886 20.7116 7.72727C20.7116 11.5128 19.4759 13.6364 17.3594 13.6364ZM25.1151 15H34.2912V13.4375H27.5298V13.3239L30.7969 9.82955C33.2969 7.15199 34.0355 5.90199 34.0355 4.28977C34.0355 2.04545 32.2173 0.255681 29.6605 0.255681C27.1108 0.255681 25.1719 1.98864 25.1719 4.54545H26.848C26.848 2.89062 27.9205 1.78977 29.6037 1.78977C31.1804 1.78977 32.3878 2.75568 32.3878 4.28977C32.3878 5.6321 31.5994 6.62642 29.9162 8.46591L25.1151 13.7216V15ZM37.2244 15H46.4006V13.4375H39.6392V13.3239L42.9062 9.82955C45.4062 7.15199 46.1449 5.90199 46.1449 4.28977C46.1449 2.04545 44.3267 0.255681 41.7699 0.255681C39.2202 0.255681 37.2812 1.98864 37.2812 4.54545H38.9574C38.9574 2.89062 40.0298 1.78977 41.7131 1.78977C43.2898 1.78977 44.4972 2.75568 44.4972 4.28977C44.4972 5.6321 43.7088 6.62642 42.0256 8.46591L37.2244 13.7216V15Z" fill="white"></path>
  </symbol>
  <symbol xmlns="http://www.w3.org/2000/svg" viewBox="0 0 62 50" id="camera1">
    <g clip-path="url(#clip0_6_114)">
      <path d="M30.897 50.036C22.766 50.036 14.635 50.036 6.505 50.036C6.478 50.036 6.447 50.037 6.415 50.037C2.872 50.037 0 47.165 0 43.622C0 43.59 0 43.559 0.001 43.527V43.532C0.0723333 34.0967 0.0723333 24.6554 0.001 15.208C0.001 15.197 0.001 15.185 0.001 15.172C0.001 11.619 2.881 8.73903 6.434 8.73903C22.767 8.73903 39.082 8.73903 55.415 8.73903C55.497 8.73503 55.593 8.73303 55.69 8.73303C59.085 8.73303 61.837 11.485 61.837 14.88C61.837 14.983 61.834 15.085 61.829 15.186L61.83 15.172V43.532C61.837 43.641 61.841 43.768 61.841 43.897C61.841 47.292 59.089 50.044 55.694 50.044C55.59 50.044 55.486 50.041 55.383 50.036L55.398 50.037L30.897 50.036ZM30.897 43.871C30.939 43.871 30.99 43.872 31.04 43.872C39.014 43.872 45.479 37.407 45.479 29.433C45.479 21.459 39.014 14.994 31.04 14.994C23.078 14.994 16.622 21.438 16.601 29.394V29.396C16.65 37.281 22.988 43.669 30.849 43.799H30.861L30.897 43.871ZM12.384 19.049C12.345 17.928 11.436 17.031 10.313 17.012H10.311C9.176 17.012 8.256 17.932 8.256 19.067C8.256 20.202 9.176 21.122 10.311 21.122C11.448 21.102 12.364 20.186 12.384 19.051V19.049Z" fill="#CCBA8D"></path>
      <path d="M42.28 6.16506H19.532C19.889 4.73506 20.211 3.35906 20.568 1.98306C20.646 0.853064 21.582 -0.0339355 22.725 -0.0339355C22.859 -0.0339355 22.991 -0.0219355 23.118 0.00206446L23.105 6.4455e-05H38.938C39.008 -0.00793555 39.089 -0.0129355 39.17 -0.0129355C40.219 -0.0129355 41.085 0.766065 41.224 1.77606L41.225 1.78706C41.565 3.07406 41.886 4.36006 42.208 5.64706C42.244 5.80806 42.244 5.96906 42.279 6.16506H42.28Z" fill="#CCBA8D"></path>
      <path d="M30.861 43.799C22.902 43.778 16.459 37.322 16.459 29.36C16.459 21.386 22.924 14.921 30.898 14.921C38.872 14.921 45.337 21.386 45.337 29.36C45.337 29.41 45.337 29.46 45.336 29.511V29.503C45.215 37.412 38.785 43.78 30.863 43.799H30.861ZM30.861 39.671C36.556 39.671 41.172 35.055 41.172 29.36C41.172 23.665 36.556 19.049 30.861 19.049C25.179 19.049 20.57 23.645 20.55 29.322V29.324C20.55 29.345 20.55 29.371 20.55 29.396C20.55 35.071 25.15 39.671 30.825 39.671C30.863 39.671 30.901 39.671 30.938 39.67H30.932L30.861 39.671Z" fill="#CCBA8D"></path>
      <path d="M12.384 19.049C12.365 20.174 11.468 21.083 10.35 21.122H10.346C9.211 21.122 8.291 20.202 8.291 19.067C8.291 17.932 9.211 17.012 10.346 17.012C11.455 17.05 12.345 17.94 12.383 19.046V19.05L12.384 19.049Z" fill="#BDAE82"></path>
      <path d="M31.129 21.1401C35.507 21.2841 39.019 24.8011 39.152 29.1691V29.1821C39.154 29.2201 39.156 29.2651 39.156 29.3111C39.156 30.4431 38.272 31.3681 37.156 31.4341H37.15C37.145 31.4341 37.138 31.4341 37.132 31.4341C35.987 31.4341 35.059 30.5061 35.059 29.3611C35.02 27.1091 33.215 25.2921 30.972 25.2331H30.966C30.949 25.2331 30.93 25.2341 30.91 25.2341C29.785 25.2341 28.873 24.3221 28.873 23.1971C28.873 23.1651 28.874 23.1341 28.875 23.1021V23.1061C28.929 22.0051 29.836 21.1321 30.946 21.1321C31.01 21.1321 31.073 21.1351 31.135 21.1401L31.127 21.1391L31.129 21.1401Z" fill="#CCBA8D"></path>
    </g>
    <defs>
      <clipPath id="clip0_6_114">
        <rect width="62" height="50"></rect>
      </clipPath>
    </defs>
  </symbol>
  <symbol xmlns="http://www.w3.org/2000/svg" viewBox="0 0 32 32" id="fb1">
    <path d="M13.04 29.333L13 17.666H8V12.666H13V9.33302C13 4.84002 15.787 2.66602 19.8 2.66602C21.72 2.66602 23.373 2.79902 23.853 2.86602V7.57302H21.066C18.893 7.57302 18.466 8.61302 18.466 10.133V12.666H24.666L22.999 17.666H18.466V29.333H13.039H13.04Z" fill="white"></path>
  </symbol>
  <symbol xmlns="http://www.w3.org/2000/svg" viewBox="0 0 59 20" id="github">
    <path d="M4.9375 19.3182C7.55114 19.3182 9.65341 18.125 9.65341 15.3125V4.09091H8.03409V5.82386H7.86364C7.49432 5.25568 6.8125 3.94886 4.68182 3.94886C1.92614 3.94886 0.0227273 6.13636 0.0227273 9.48864C0.0227273 12.8977 2.01136 14.8295 4.65341 14.8295C6.78409 14.8295 7.46591 13.5795 7.83523 12.983H7.97727V15.1989C7.97727 17.017 6.69886 17.8409 4.9375 17.8409C2.95597 17.8409 2.25994 16.7969 1.8125 16.1932L0.477273 17.1307C1.15909 18.2741 2.50142 19.3182 4.9375 19.3182ZM4.88068 13.3239C2.77841 13.3239 1.69886 11.733 1.69886 9.46023C1.69886 7.24432 2.75 5.45455 4.88068 5.45455C6.92614 5.45455 8.00568 7.10227 8.00568 9.46023C8.00568 11.875 6.89773 13.3239 4.88068 13.3239ZM12.7216 15H14.3977V4.09091H12.7216V15ZM13.5739 2.27273C14.2273 2.27273 14.767 1.76136 14.767 1.13636C14.767 0.511364 14.2273 0 13.5739 0C12.9205 0 12.3807 0.511364 12.3807 1.13636C12.3807 1.76136 12.9205 2.27273 13.5739 2.27273ZM22.212 4.09091H19.8825V1.47727H18.2063V4.09091H16.5586V5.51136H18.2063V12.3295C18.2063 14.233 19.7404 15.142 21.1609 15.142C21.7859 15.142 22.1836 15.0284 22.4109 14.9432L22.07 13.4375C21.9279 13.4659 21.7006 13.5227 21.3313 13.5227C20.5927 13.5227 19.8825 13.2955 19.8825 11.875V5.51136H22.212V4.09091ZM26.6438 8.4375C26.6438 6.53409 27.8583 5.45455 29.5131 5.45455C31.0898 5.45455 32.0415 6.44886 32.0415 8.18182V15H33.7177V8.06818C33.7177 5.26278 32.2262 3.94886 29.9961 3.94886C28.2773 3.94886 27.2972 4.66619 26.7859 5.79545H26.6438V0.454545H24.9677V15H26.6438V8.4375ZM43.6591 10.5398C43.6591 12.5852 42.0966 13.5227 40.8466 13.5227C39.4545 13.5227 38.4602 12.5 38.4602 10.9091V4.09091H36.7841V11.0227C36.7841 13.8068 38.2614 15.142 40.3068 15.142C41.9545 15.142 43.0341 14.2614 43.5455 13.1534H43.6591V15H45.3352V4.09091H43.6591V10.5398ZM48.6325 15H50.2518V13.3239H50.4506C50.82 13.9205 51.5302 15.2273 53.6325 15.2273C56.3597 15.2273 58.2631 13.0398 58.2631 9.57386C58.2631 6.13636 56.3597 3.94886 53.604 3.94886C51.4734 3.94886 50.82 5.25568 50.4506 5.82386H50.3086V0.454545H48.6325V15ZM50.2802 9.54545C50.2802 7.10227 51.3597 5.45455 53.4052 5.45455C55.5359 5.45455 56.587 7.24432 56.587 9.54545C56.587 11.875 55.5075 13.7216 53.4052 13.7216C51.3881 13.7216 50.2802 12.017 50.2802 9.54545Z" fill="white"></path>
  </symbol>
  <symbol xmlns="http://www.w3.org/2000/svg" viewBox="0 0 66 50" id="image1">
    <g clip-path="url(#clip0_6_146)">
      <path d="M-1.41598e-05 48.5029V1.49692C0.361986 0.60892 1.21999 -0.00608008 2.21999 -0.00608008C2.27999 -0.00608008 2.33999 -0.00408008 2.39899 0.000919921H2.39099H63.727C63.784 -0.00408008 63.851 -0.00708008 63.918 -0.00708008C65.158 -0.00708008 66.163 0.99792 66.163 2.23792C66.163 2.30492 66.16 2.37192 66.154 2.43692L66.155 2.42892C66.155 11.9029 66.155 21.3779 66.155 30.8339C66.155 36.4749 66.155 42.1149 66.155 47.7559C66.163 47.8219 66.167 47.8989 66.167 47.9769C66.167 49.0759 65.276 49.9669 64.177 49.9669C64.147 49.9669 64.117 49.9659 64.087 49.9649H64.091H2.64499C2.54299 49.9789 2.42599 49.9879 2.30599 49.9879C1.28699 49.9879 0.407986 49.3869 0.00498584 48.5209L-0.00201416 48.5049L-1.41598e-05 48.5029ZM62.066 4.14392H4.12499V32.0919L4.76399 31.6539L15.991 23.6039C16.388 23.2059 16.936 22.9599 17.543 22.9599C18.15 22.9599 18.698 23.2059 19.095 23.6039L30.888 32.0559C32.713 33.3699 34.539 34.6849 36.364 35.9629C36.696 36.2189 37.117 36.3739 37.575 36.3739C38.476 36.3739 39.237 35.7759 39.482 34.9549L39.486 34.9409C39.537 34.7709 39.566 34.5759 39.566 34.3729C39.566 33.5999 39.141 32.9259 38.511 32.5729L38.501 32.5679C35.9577 30.7793 33.469 28.9843 31.035 27.1829L30.469 26.7629L30.798 26.5069L40.966 19.2049C41.363 18.8069 41.911 18.5609 42.518 18.5609C43.125 18.5609 43.673 18.8069 44.07 19.2049L61.412 31.6549L62.051 32.0749L62.066 4.14392Z" fill="#BDAE82"></path>
      <path d="M26.962 9.34597C29.987 9.34597 32.438 11.798 32.438 14.822C32.484 15.09 32.511 15.399 32.511 15.713C32.511 18.738 30.059 21.189 27.035 21.189C24.011 21.189 21.559 18.737 21.559 15.713C21.559 15.398 21.586 15.09 21.637 14.789L21.632 14.821C21.632 14.82 21.632 14.82 21.632 14.819C21.632 11.846 24.001 9.42597 26.955 9.34497H26.963L26.962 9.34597Z" fill="#CCBA8D"></path>
    </g>
    <defs>
      <clipPath id="clip0_6_146">
        <rect width="66" height="50"></rect>
      </clipPath>
    </defs>
  </symbol>
  <symbol xmlns="http://www.w3.org/2000/svg" viewBox="0 0 32 32" id="inst1">
    <path d="M17.36 2.66699C19.76 2.66699 20.267 2.69399 21.493 2.74699C22.906 2.81399 23.88 3.03999 24.72 3.37399C25.6 3.70699 26.347 4.17399 27.08 4.90699C27.827 5.63999 28.28 6.38699 28.627 7.26699C28.96 8.10699 29.174 9.07999 29.24 10.507C29.307 11.774 29.32 12.267 29.32 14.934V17.067C29.32 19.734 29.307 20.227 29.24 21.494C29.217 22.659 28.994 23.764 28.604 24.788L28.626 24.721C28.279 25.601 27.826 26.348 27.093 27.081C26.346 27.828 25.6 28.281 24.72 28.628C23.88 28.961 22.907 29.175 21.493 29.241C20.226 29.308 19.72 29.321 17.053 29.321H14.933C12.266 29.321 11.773 29.308 10.493 29.241C9.32796 29.218 8.22296 28.995 7.19896 28.605L7.26596 28.627C6.34296 28.274 5.55596 27.753 4.90696 27.094L4.90596 27.093C4.23996 26.441 3.71396 25.649 3.37396 24.764L3.35896 24.719C2.99196 23.763 2.76896 22.657 2.74596 21.502V21.492C2.69296 20.45 2.66296 19.229 2.66296 18.002C2.66296 17.776 2.66396 17.55 2.66596 17.325V17.359V14.626C2.66596 12.226 2.69296 11.719 2.74596 10.493C2.81296 9.07999 3.03896 8.10599 3.35896 7.26599C3.70596 6.38599 4.15896 5.63899 4.90596 4.90599C5.55096 4.23899 6.33996 3.71599 7.22296 3.38699L7.26596 3.37299C8.22096 3.00199 9.32596 2.77399 10.481 2.74699H10.493C11.72 2.69399 12.226 2.66699 14.626 2.66699H17.36ZM17.387 5.06699H14.6C12.293 5.06699 11.8 5.09399 10.6 5.14699C9.30696 5.19999 8.59996 5.41399 8.13296 5.59999C7.50596 5.83999 7.06596 6.13299 6.59996 6.59999C6.13396 7.06699 5.83996 7.50699 5.59996 8.13299C5.42696 8.59999 5.19996 9.30599 5.14696 10.613C5.09396 11.813 5.06696 12.293 5.06696 14.613V17.386C5.06696 19.706 5.09396 20.186 5.14696 21.386C5.19996 22.679 5.41396 23.386 5.59996 23.853C5.83996 24.48 6.13296 24.92 6.59996 25.386C7.06696 25.852 7.50696 26.146 8.13296 26.386C8.59996 26.573 9.30596 26.786 10.613 26.839C11.906 26.906 12.373 26.919 15.253 26.919H16.733C19.626 26.919 20.08 26.906 21.386 26.839C22.679 26.786 23.386 26.572 23.853 26.386C24.48 26.146 24.92 25.853 25.386 25.386C25.852 24.919 26.146 24.479 26.386 23.853C26.573 23.386 26.786 22.68 26.839 21.386C26.906 20.079 26.919 19.626 26.919 16.733V15.266C26.919 12.373 26.906 11.906 26.839 10.599C26.786 9.30599 26.572 8.59899 26.386 8.13199C26.16 7.53099 25.819 7.01799 25.387 6.59999L25.386 6.59899C24.966 6.16599 24.454 5.82499 23.881 5.60799L23.853 5.59899C23.121 5.32299 22.275 5.15799 21.391 5.14599H21.386C20.358 5.09399 19.155 5.06399 17.944 5.06399C17.748 5.06399 17.552 5.06499 17.356 5.06599H17.386L17.387 5.06699ZM16 9.14699C19.781 9.14699 22.847 12.212 22.847 15.994C22.847 19.776 19.782 22.841 16 22.841C12.219 22.841 9.15296 19.776 9.15296 15.994C9.15296 12.212 12.218 9.14699 16 9.14699ZM16 11.547C13.544 11.547 11.553 13.538 11.553 15.994C11.553 18.45 13.544 20.441 16 20.441C18.456 20.441 20.447 18.45 20.447 15.994C20.447 13.538 18.456 11.547 16 11.547ZM23.107 7.27999C23.991 7.27999 24.707 7.99599 24.707 8.87999C24.707 9.76399 23.991 10.48 23.107 10.48C22.223 10.48 21.507 9.76399 21.507 8.87999C21.507 7.99599 22.223 7.27999 23.107 7.27999Z" fill="white"></path>
  </symbol>
  <symbol xmlns="http://www.w3.org/2000/svg" viewBox="0 0 32 32" id="pinterest1">
    <path d="M16 2.66699C8.65699 2.69399 2.71399 8.65299 2.71399 16C2.71399 21.599 6.16599 26.393 11.057 28.368L11.146 28.4C11.013 27.347 10.919 25.733 11.186 24.573L12.746 17.946C12.746 17.946 12.346 17.146 12.346 15.973C12.346 14.12 13.426 12.746 14.773 12.746C15.906 12.746 16.466 13.599 16.466 14.613C16.466 15.76 15.733 17.466 15.346 19.053C15.026 20.386 16.013 21.466 17.333 21.466C19.706 21.466 21.52 18.973 21.52 15.373C21.52 12.173 19.227 9.95999 15.947 9.95999C15.871 9.95599 15.783 9.95399 15.694 9.95399C12.505 9.95399 9.92099 12.539 9.92099 15.727C9.92099 15.729 9.92099 15.731 9.92099 15.733C9.92099 16.88 10.361 18.106 10.908 18.773C11.015 18.906 11.028 19.026 10.988 19.16L10.615 20.667C10.562 20.907 10.415 20.974 10.175 20.854C8.49499 20.067 7.45499 17.654 7.45499 15.681C7.45499 11.481 10.522 7.62799 16.282 7.62799C20.895 7.62799 24.509 10.908 24.509 15.321C24.509 19.921 21.602 23.614 17.576 23.614C16.243 23.614 14.963 22.907 14.536 22.081L13.696 25.241C13.265 26.578 12.704 27.739 12.008 28.804L12.042 28.748C13.212 29.12 14.558 29.335 15.953 29.335C23.317 29.335 29.286 23.365 29.286 16.002C29.286 8.65499 23.344 2.69599 16.004 2.66899H16.001L16 2.66699Z" fill="white"></path>
  </symbol>
  <symbol xmlns="http://www.w3.org/2000/svg" viewBox="0 0 32 50" id="mic1">
    <g clip-path="url(#clip0_6_107)">
      <path d="M4.371 50V47.102H14.587V40.93C6.391 40.113 0.038 33.272 0 24.938V24.934H2.881C2.895 29.331 5.074 33.216 8.407 35.581L8.448 35.608C10.52 37.153 13.131 38.082 15.959 38.082C16.196 38.082 16.432 38.075 16.667 38.063L16.634 38.064C23.627 37.725 29.177 32.004 29.24 24.973V24.967H32.138C32.138 25 32.138 25.039 32.138 25.078C32.138 29.228 30.531 33.003 27.905 35.815L27.913 35.806C25.306 38.656 21.696 40.55 17.645 40.926L17.582 40.931V47.021H27.831V49.968L4.371 50Z" fill="#CCBA8D"></path>
      <path d="M26.326 11.706V16.11H19.04V19.024H26.309V23.412H19.056V26.359H26.194C25.475 31.369 21.212 35.177 16.06 35.177C10.908 35.177 6.64496 31.369 5.93196 26.414L5.92596 26.359H13.097V23.461H5.86096V19.057H13.097V16.126H5.86096V11.755H13.097V8.792H5.95896C6.72396 3.832 10.963 0.0780029 16.078 0.0780029C21.187 0.0780029 25.422 3.823 26.187 8.718L26.194 8.776H19.039V11.707L26.326 11.706Z" fill="#BDAE82"></path>
    </g>
    <defs>
      <clipPath id="clip0_6_107">
        <rect width="32" height="50"></rect>
      </clipPath>
    </defs>
  </symbol>
  <symbol xmlns="http://www.w3.org/2000/svg" viewBox="0 0 58 58" id="logo">
    <g filter="url(#filter0_dd_3_12)">
      <path d="M24.4506 5.25918C23.0919 5.69691 21.9456 6.47652 21.6601 7.15634L21.5398 7.4419L19.6561 7.43301L19.4116 6.93006C19.2253 6.54668 19.063 6.3708 18.7263 6.18701L18.2864 5.94591H15.1062C10.935 5.94591 10.4089 6.15341 10.4089 7.80355V8.26796L9.69955 8.61478C7.08441 9.8924 5.03538 12.416 4.22579 15.3546L4.00035 16.1748V26.2584C4.00035 37.2698 3.96728 36.5584 4.54742 38.1166C5.84798 41.6086 8.86291 44.1352 12.5492 44.8258C13.7886 45.0581 44.2114 45.0581 45.4508 44.8258C49.1371 44.1362 52.152 41.6096 53.4526 38.1166C54.0327 36.5584 53.9997 37.2698 53.9997 26.2584V16.1748L53.7832 15.4031C52.649 11.3647 49.7433 8.61182 45.6342 7.67905C45.02 7.53972 44.2134 7.50514 40.6765 7.46858L36.4532 7.42412L36.3369 7.14745C36.0504 6.46565 34.8209 5.64553 33.4663 5.23349C32.3992 4.9084 25.4756 4.92816 24.4506 5.25918ZM44.0601 10.8222C47.053 11.1256 49.3856 12.9526 50.3976 15.7874L50.6731 16.5591L50.7012 25.871C50.7332 36.5189 50.7653 36.0218 49.9236 37.7342C48.9758 39.662 47.064 41.1205 44.9288 41.5453C43.7856 41.7726 14.2114 41.7726 13.0712 41.5453C10.9159 41.1145 9.0112 39.6284 8.00923 37.5949C7.24473 36.0426 7.26677 36.4072 7.29883 25.871L7.32689 16.5591L7.63149 15.7163C8.60841 13.0168 10.9961 11.1167 13.7736 10.8291C14.9589 10.7066 42.8517 10.6997 44.0601 10.8212V10.8222ZM13.5171 11.8884C10.3789 12.3419 8.35391 14.8942 8.35391 18.398V19.6954H15.0661L15.2915 19.2369C16.2845 17.2123 18.2844 15.0167 20.4357 13.5869C21.2402 13.0524 23.3614 11.9763 23.6109 11.9763C23.669 11.9763 23.7161 11.9328 23.7161 11.8795C23.7161 11.7609 14.3457 11.7678 13.5171 11.8874V11.8884ZM34.2839 11.8548C34.2839 11.9002 34.4492 11.9951 34.6506 12.0652C37.7206 13.1294 41.462 16.4702 42.7385 19.2863L42.9249 19.6964H49.6471V18.399C49.6471 15.1284 48.1341 12.9842 45.1462 12.0168C44.5581 11.8261 34.2849 11.674 34.2849 11.8558L34.2839 11.8548ZM28.0707 12.5178C16.6663 13.6156 11.1324 25.9748 18.0931 34.7976C25.7892 44.5512 41.8768 39.7015 42.8858 27.3236C43.5611 19.0343 36.2528 11.7313 28.0707 12.5178ZM30.6638 15.9455C37.2327 16.8753 41.3277 23.963 38.8278 30.0774C35.9482 37.1216 26.708 38.9279 21.4136 33.4804C14.3908 26.2544 20.5819 14.5187 30.6638 15.9455ZM27.8723 17.5719C21.9617 18.395 18.553 24.3474 20.8885 29.7701C23.5698 35.9942 32.5605 36.7659 36.376 31.1001C40.5512 24.9007 35.2949 16.5394 27.8723 17.5719ZM31.7168 18.9098C32.8581 19.2596 33.7118 20.0768 33.7318 20.8366C33.7779 22.5886 30.2289 22.5332 29.0416 20.7635C28.1388 19.4187 29.747 18.3051 31.7168 18.9098ZM26.701 32.2552C27.7821 32.4805 29.3923 33.4557 29.3923 33.8846C29.3923 34.8865 25.7581 34.2393 24.697 33.0486C23.9636 32.2246 24.8564 31.8708 26.701 32.2552ZM45.9128 35.9991C43.8938 36.6167 44.2846 39.3863 46.3897 39.3794C48.5309 39.3725 48.6902 36.2629 46.564 35.9734C46.3486 35.9438 46.056 35.9556 45.9128 36.0001V35.9991Z" fill="white"></path>
    </g>
    <defs>
      <filter id="filter0_dd_3_12" x="0" y="0" width="58" height="58" filterUnits="userSpaceOnUse" color-interpolation-filters="sRGB">
        <feFlood flood-opacity="0" result="BackgroundImageFix"></feFlood>
        <feColorMatrix in="SourceAlpha" type="matrix" values="0 0 0 0 0 0 0 0 0 0 0 0 0 0 0 0 0 0 127 0" result="hardAlpha"></feColorMatrix>
        <feOffset dy="4"></feOffset>
        <feGaussianBlur stdDeviation="2"></feGaussianBlur>
        <feComposite in2="hardAlpha" operator="out"></feComposite>
        <feColorMatrix type="matrix" values="0 0 0 0 0 0 0 0 0 0 0 0 0 0 0 0 0 0 0.25 0"></feColorMatrix>
        <feBlend mode="normal" in2="BackgroundImageFix" result="effect1_dropShadow_3_12"></feBlend>
        <feColorMatrix in="SourceAlpha" type="matrix" values="0 0 0 0 0 0 0 0 0 0 0 0 0 0 0 0 0 0 127 0" result="hardAlpha"></feColorMatrix>
        <feOffset dy="4"></feOffset>
        <feGaussianBlur stdDeviation="2"></feGaussianBlur>
        <feComposite in2="hardAlpha" operator="out"></feComposite>
        <feColorMatrix type="matrix" values="0 0 0 0 0 0 0 0 0 0 0 0 0 0 0 0 0 0 0.25 0"></feColorMatrix>
        <feBlend mode="normal" in2="effect1_dropShadow_3_12" result="effect2_dropShadow_3_12"></feBlend>
        <feBlend mode="normal" in="SourceGraphic" in2="effect2_dropShadow_3_12" result="shape"></feBlend>
      </filter>
    </defs>
  </symbol>
  <symbol xmlns="http://www.w3.org/2000/svg" viewBox="0 0 60 50" id="video1">
    <g clip-path="url(#clip0_6_144)">
      <path d="M59.843 1.30696V48.781C59.465 49.535 58.698 50.043 57.812 50.043C57.748 50.043 57.685 50.04 57.622 50.035L57.63 50.036H2.194C2.128 50.044 2.051 50.048 1.973 50.048C0.876 50.048 -0.0130005 49.159 -0.0130005 48.062C-0.0130005 47.984 -0.00900049 47.907 -4.88944e-07 47.831L-0.00100049 47.84C-0.00100049 32.6133 -0.00100049 17.387 -0.00100049 2.16096C-0.00600049 2.10596 -0.0100005 2.04196 -0.0100005 1.97696C-0.0100005 0.879962 0.878999 -0.00903808 1.976 -0.00903808C2.047 -0.00903808 2.116 -0.00503808 2.185 0.00196192L2.176 0.000961917C20.666 0.000961917 39.1447 0.000961917 57.612 0.000961917C57.687 -0.00803808 57.774 -0.0140381 57.863 -0.0140381C58.75 -0.0140381 59.511 0.524962 59.837 1.29296L59.842 1.30696H59.843ZM22.544 24.983V30.575C22.545 30.941 22.596 31.295 22.69 31.631L22.683 31.603C23.038 32.503 23.901 33.128 24.909 33.128C25.419 33.128 25.892 32.968 26.28 32.695L26.272 32.7C29.6 30.784 32.892 28.85 36.185 26.899C36.865 26.531 37.318 25.823 37.318 25.009C37.318 24.195 36.864 23.487 36.196 23.124L36.185 23.118C32.892 21.097 29.513 19.163 26.133 17.212C25.78 16.992 25.351 16.861 24.892 16.861C23.583 16.861 22.523 17.922 22.523 19.23C22.523 19.28 22.525 19.33 22.528 19.379V19.372C22.65 21.236 22.545 23.118 22.545 24.982L22.544 24.983ZM9.443 6.55096V3.57196H3.572V6.55096H9.443ZM3.484 46.376H9.442V43.449H3.484V46.376ZM18.833 3.57096H13.066V6.53296H18.833V3.57096ZM22.456 3.57096V6.53296H28.24V3.48396L22.456 3.57096ZM37.613 6.55096V3.57196H31.846V6.53396L37.613 6.55096ZM47.038 3.57096H41.219V6.53296H47.038V3.57096ZM37.631 46.394V43.554H31.847V46.481L37.631 46.394ZM18.815 46.394V43.554H13.048V46.481L18.815 46.394ZM28.24 46.394V43.554H22.473V46.498L28.24 46.394ZM47.038 43.449H41.219V46.376H47.038V43.449ZM56.289 6.55096V3.48496H50.627V6.55096H56.289ZM56.289 43.449H50.627V46.393H56.306L56.289 43.449Z" fill="#BDAE82"></path>
    </g>
    <defs>
      <clipPath id="clip0_6_144">
        <rect width="60" height="50"></rect>
      </clipPath>
    </defs>
  </symbol>
</svg>